# xmcd
#
# Track frame offsets: 
#        150
#        12058
#        30016
#        46702
#        62835
#        77349
#        97137
#        114631
#        131774
#        142027
#        164083
#        190488
#        202187
#        219035
#        235378
#        246706
#        263929
#
# Disc length: 3757 seconds
#
# Revision: 0
# Processed by: cddbd v1.5.2PL0 Copyright (c) Steve Scherf et al.
# Submitted via: ExactAudioCopy v0.90b3
#
DISCID=f60eab11
DTITLE=Various Artist - The Country-Side of Berlin
DYEAR=2002
DGENRE=Country New
TTITLE0=Hot String Quintet - Hold That Critter Down
TTITLE1=Larry Schuba and Western Union - Helden Seh' Ich Viele Jeden Tag
TTITLE2=Nico and The Dearhunters - You're Still The One
TTITLE3=Hot Nachos - 41 Going On 17
TTITLE4=Country Cousins - There Always Comes A Time
TTITLE5=Jamestown Ferry - If I Needed You
TTITLE6=Earthwood Family - Nur Mit Dir
TTITLE7=Bluegrass Breakdown - Losing Sleep
TTITLE8=California Fog - Devoted To You
TTITLE9=Eleven Strings - Pretty Little Miss
TTITLE10=Staetson - Everywhere
TTITLE11=Carolina - The Other Side
TTITLE12=Country Delight - Look At The Children
TTITLE13=Fairplay - Ganz Egal
TTITLE14=Claudy Blue Sky - What You Gonna Do With A Cowboy
TTITLE15=Almost Heaven - Blue Chalk
TTITLE16=Tom Cunningham - The Present
EXTD=
EXTT0=
EXTT1=
EXTT2=
EXTT3=
EXTT4=
EXTT5=
EXTT6=
EXTT7=
EXTT8=
EXTT9=
EXTT10=
EXTT11=
EXTT12=
EXTT13=
EXTT14=
EXTT15=
EXTT16=
PLAYORDER=
